Coordinates
version=1
nRows=32
nColumns=22
inDegrees=yes

Units are S.I. units (second, meters, Newtons, ...)
If the header above contains a line with 'inDegrees', this indicates whether rotational values are in degrees (yes) or radians (no).

endheader
time	pelvis_tilt	pelvis_list	pelvis_rotation	pelvis_tx	pelvis_ty	pelvis_tz	hip_flexion_r	hip_adduction_r	hip_rotation_r	knee_angle_r	ankle_angle_r	subtalar_angle_r	hip_flexion_l	hip_adduction_l	hip_rotation_l	knee_angle_l	ankle_angle_l	subtalar_angle_l	lumbar_extension	lumbar_bending	lumbar_rotation
      0.01000000	      2.78496995	      7.69113889	   -171.66998631	      0.24717386	      0.97300897	      0.99501615	      5.74948687	      8.20477436	     -8.51209544	    -14.56760361	      9.93856959	     -1.07397462	    183.53574220	   -171.90924714	   -176.12718184	     -9.03110779	     12.29738408	     -0.61082262	      3.51812303	      4.98585948	    351.51457660
      0.02000000	      2.78066040	      7.68762864	   -171.64755318	      0.24717200	      0.97300008	      0.99513990	      5.74668962	      8.19322076	     -8.53430687	    -14.56872589	      9.94899450	     -1.07290139	    183.53234910	   -171.91986272	   -176.10664900	     -9.02802712	     12.29964128	     -0.61158256	      3.51655183	      4.98376891	    351.52739045
      0.03000000	      2.77379835	      7.68356949	   -171.61724023	      0.24716451	      0.97299454	      0.99528372	      5.74227867	      8.17957559	     -8.57011895	    -14.57384250	      9.95862340	     -1.06966230	    183.52716054	   -171.93183224	   -176.07632713	     -9.02475053	     12.29954006	     -0.61436816	      3.51560163	      4.98040612	    351.53695667
      0.04000000	      2.76832724	      7.68288644	   -171.58692989	      0.24716704	      0.97298929	      0.99543558	      5.73953439	      8.16919413	     -8.60407415	    -14.57846010	      9.96324829	     -1.06714484	    183.52547908	   -171.94116093	   -176.04757960	     -9.02291917	     12.29989956	     -0.61882445	      3.51492908	      4.98199927	    351.55189261
      0.05000000	      2.76314185	      7.68306307	   -171.55394354	      0.24717122	      0.97298502	      0.99559073	      5.73761768	      8.15922730	     -8.64167342	    -14.58522613	      9.96553608	     -1.06690931	    183.52519435	   -171.94950667	   -176.01502670	     -9.02171795	     12.30046963	     -0.62525542	      3.51571794	      4.98425622	    351.56887387
      0.06000000	      2.75961386	      7.68408877	   -171.52127226	      0.24718326	      0.97298077	      0.99574735	      5.73729214	      8.14985463	     -8.67751574	    -14.59090574	      9.96539644	     -1.07014262	    183.52747595	   -171.95739778	   -175.98246329	     -9.02098034	     12.30050736	     -0.63367751	      3.51797206	      4.98826432	    351.58961330
      0.07000000	      2.75741529	      7.68523619	   -171.49158597	      0.24720024	      0.97297761	      0.99589723	      5.73837050	      8.14129198	     -8.70753944	    -14.59633158	      9.96307093	     -1.07591434	    183.53059030	   -171.96490807	   -175.95399887	     -9.01963968	     12.30069438	     -0.64200719	      3.52134689	      4.99297812	    351.61728078
      0.08000000	      2.75603856	      7.68543268	   -171.46259077	      0.24721575	      0.97297467	      0.99604375	      5.74049700	      8.13167823	     -8.73730533	    -14.60273742	      9.96032826	     -1.08456654	    183.53321795	   -171.97308241	   -175.92614854	     -9.01656161	     12.29957087	     -0.65186317	      3.52695005	      4.99655836	    351.64753619
      0.09000000	      2.75435345	      7.68649135	   -171.43917920	      0.24722538	      0.97297370	      0.99618112	      5.73757362	      8.12473505	     -8.75437067	    -14.60117635	      9.95972412	     -1.08770624	    183.53586660	   -171.97927779	   -175.91155168	     -9.01665442	     12.29864008	     -0.65480623	      3.53401416	      5.00177974	    351.68708235
      0.10000000	      2.75257876	      7.68240061	   -171.41244160	      0.24725012	      0.97297189	      0.99633076	      5.74508204	      8.10908557	     -8.78837503	    -14.61716833	      9.95564850	     -1.09767701	    183.53072859	   -171.99196570	   -175.88173071	     -9.00155358	     12.29589769	     -0.66498643	      3.53848929	      5.00274046	    351.72308082
      0.11000000	      2.74986199	      7.68158882	   -171.38821596	      0.24725692	      0.97296941	      0.99647528	      5.74177156	      8.10021748	     -8.80562252	    -14.61656047	      9.95656484	     -1.10074413	    183.53028774	   -172.00028821	   -175.86676021	     -8.99881051	     12.29372781	     -0.66797569	      3.54653808	      5.00715884	    351.76469619
      0.12000000	      2.74363106	      7.67166363	   -171.36033984	      0.24727494	      0.97297046	      0.99664536	      5.74521847	      8.07786226	     -8.83709673	    -14.63617215	      9.95748300	     -1.10813404	    183.51414451	   -172.01941293	   -175.83475032	     -8.97460164	     12.28693849	     -0.67696316	      3.54710523	      5.00482291	    351.80110027
      0.13000000	      2.73228208	      7.66029272	   -171.32764022	      0.24727414	      0.97297580	      0.99682768	      5.73703587	      8.05609463	     -8.86142824	    -14.64729998	      9.96413806	     -1.11337453	    183.49440215	   -172.03986916	   -175.80394912	     -8.95521377	     12.27775521	     -0.68715325	      3.54580055	      5.00110725	    351.83434680
      0.14000000	      2.71641271	      7.64904272	   -171.29175835	      0.24726461	      0.97298602	      0.99702622	      5.72344912	      8.03465083	     -8.88162295	    -14.65874743	      9.97147161	     -1.11477467	    183.46807039	   -172.06026624	   -175.77150685	     -8.93262797	     12.27016029	     -0.69597483	      3.54051342	      4.99882253	    351.86249968
      0.15000000	      2.69668355	      7.63687782	   -171.25121179	      0.24725161	      0.97299991	      0.99724520	      5.70494298	      8.01198622	     -8.90070650	    -14.66927190	      9.98093990	     -1.11317151	    183.43654960	   -172.08219785	   -175.73471436	     -8.90754909	     12.26278318	     -0.70364575	      3.53057411	      4.99808025	    351.88397484
      0.16000000	      2.67304850	      7.62467148	   -171.20564170	      0.24723311	      0.97301662	      0.99747695	      5.68128219	      7.98954305	     -8.92118986	    -14.67899806	      9.99178722	     -1.10891709	    183.40017976	   -172.10400748	   -175.69445328	     -8.88034359	     12.25479619	     -0.71155516	      3.51738949	      4.99848262	    351.89779774
      0.17000000	      2.64781239	      7.61416023	   -171.15703221	      0.24721469	      0.97303499	      0.99771537	      5.65573820	      7.96866689	     -8.94324728	    -14.68823137	     10.00246290	     -1.10253919	    183.36222740	   -172.12379455	   -175.65322083	     -8.85143315	     12.24725839	     -0.72004417	      3.50264255	      5.00116355	    351.90434486
      0.18000000	      2.62320710	      7.60568180	   -171.10788667	      0.24720132	      0.97305209	      0.99795383	      5.63165758	      7.94968576	     -8.96801582	    -14.69718946	     10.01278682	     -1.09494616	    183.32540002	   -172.14156212	   -175.61021467	     -8.82240759	     12.24070000	     -0.72858141	      3.48786832	      5.00676207	    351.90726674
      0.19000000	      2.59982088	      7.59929860	   -171.05911379	      0.24719329	      0.97306769	      0.99818638	      5.60924750	      7.93248935	     -8.99568957	    -14.70544985	     10.02234908	     -1.08618390	    183.29087994	   -172.15667026	   -175.56902233	     -8.79382791	     12.23414750	     -0.73737630	      3.47415634	      5.01443201	    351.90472617
      0.20000000	      2.57914327	      7.59539607	   -171.01328473	      0.24719172	      0.97307980	      0.99840542	      5.59125463	      7.91784909	     -9.02535882	    -14.71463037	     10.03089652	     -1.07703289	    183.25983330	   -172.16893012	   -175.52820639	     -8.76607884	     12.22927751	     -0.74532331	      3.46273618	      5.02381778	    351.90167648
      0.21000000	      2.56116738	      7.59347185	   -170.97127239	      0.24719733	      0.97308986	      0.99861046	      5.57688186	      7.90496820	     -9.05571160	    -14.72331018	     10.03799456	     -1.06757531	    183.23310878	   -172.17859417	   -175.49095388	     -8.74067001	     12.22487696	     -0.75217957	      3.45313129	      5.03459879	    351.89749374
      0.22000000	      2.54477120	      7.59302237	   -170.93333531	      0.24720188	      0.97309947	      0.99880053	      5.56410611	      7.89409009	     -9.08640898	    -14.73147825	     10.04386365	     -1.05730580	    183.20900696	   -172.18630938	   -175.45670984	     -8.71798473	     12.22046685	     -0.75832743	      3.44567099	      5.04552183	    351.89248183
      0.23000000	      2.53063836	      7.59373449	   -170.90087784	      0.24721002	      0.97310798	      0.99897439	      5.55367702	      7.88479999	     -9.11529889	    -14.73856496	     10.04834824	     -1.04680198	    183.18860356	   -172.19233186	   -175.42692645	     -8.69850102	     12.21656101	     -0.76365725	      3.43985734	      5.05645142	    351.88881362
      0.24000000	      2.51814633	      7.59487993	   -170.87265800	      0.24721593	      0.97311657	      0.99913599	      5.54364487	      7.87640463	     -9.14193153	    -14.74320865	     10.05192393	     -1.03564584	    183.17159613	   -172.19760300	   -175.40114245	     -8.68361382	     12.21259949	     -0.76894393	      3.43570772	      5.06601620	    351.88630528
      0.25000000	      2.50860074	      7.59641738	   -170.85078396	      0.24722564	      0.97312245	      0.99928411	      5.53721791	      7.86886178	     -9.16367701	    -14.74852876	     10.05427273	     -1.02667908	    183.15896681	   -172.20257474	   -175.38045732	     -8.67210981	     12.21016191	     -0.77288163	      3.43328359	      5.07475225	    351.88645341
      0.26000000	      2.49952936	      7.59692865	   -170.83128269	      0.24723223	      0.97312987	      0.99942571	      5.52980566	      7.86090504	     -9.18341280	    -14.75179006	     10.05676573	     -1.01743190	    183.14844601	   -172.20858614	   -175.35987320	     -8.66514647	     12.20780750	     -0.77711386	      3.43092954	      5.08147054	    351.88584024
      0.27000000	      2.49106612	      7.59668409	   -170.81501352	      0.24723581	      0.97313667	      0.99956080	      5.52220738	      7.85290596	     -9.19793118	    -14.75451862	     10.05959139	     -1.00758788	    183.13976166	   -172.21543819	   -175.34137071	     -8.66183779	     12.20662394	     -0.78216280	      3.42860080	      5.08679532	    351.88469093
      0.28000000	      2.48669361	      7.59767564	   -170.80692467	      0.24724263	      0.97313787	      0.99968421	      5.51899784	      7.84692402	     -9.19896157	    -14.75696758	     10.06021086	     -1.00529386	    183.13811147	   -172.22135910	   -175.33269822	     -8.66530594	     12.20683551	     -0.78329231	      3.42886315	      5.09359762	    351.89111496
      0.29000000	      2.48048773	      7.59666449	   -170.80001963	      0.24724385	      0.97313959	      0.99980524	      5.51474547	      7.83915345	     -9.20006125	    -14.76249414	     10.06174423	     -1.00132232	    183.13411083	   -172.22928769	   -175.31826884	     -8.67044488	     12.21030578	     -0.78560891	      3.42699217	      5.09896077	    351.89082017
      0.30000000	      2.47448386	      7.59523607	   -170.79343114	      0.24724054	      0.97313901	      0.99992156	      5.50927479	      7.83152022	     -9.20088911	    -14.76681090	     10.06501138	     -0.99603277	    183.13123937	   -172.23739023	   -175.30555970	     -8.67741797	     12.21475012	     -0.78931459	      3.42510104	      5.10369883	    351.88797012
      0.31000000	      2.47273850	      7.59648566	   -170.79301789	      0.24723159	      0.97313440	      1.00002823	      5.50718645	      7.82675656	     -9.19995765	    -14.76842697	     10.06513102	     -0.99569254	    183.12978199	   -172.24253726	   -175.30419826	     -8.67979042	     12.21510389	     -0.78964048	      3.42851203	      5.11180911	    351.88789459
      0.32000000	      2.46658082	      7.59501226	   -170.79392161	      0.24724109	      0.97313132	      1.00012563	      5.50414690	      7.82007884	     -9.19424449	    -14.77596233	     10.06753033	     -0.99061547	    183.13067935	   -172.25035352	   -175.29137155	     -8.69573550	     12.22454280	     -0.79529442	      3.42243059	      5.11709720	    351.88438510
